<?xml version="1.0" standalone="no"?>
<!DOCTYPE svg PUBLIC "-//W3C//DTD SVG 20010904//EN"
 "http://www.w3.org/TR/2001/REC-SVG-20010904/DTD/svg10.dtd">
<svg version="1.0" xmlns="http://www.w3.org/2000/svg"
 width="360.000000pt" height="360.000000pt" viewBox="0 0 360.000000 360.000000"
 preserveAspectRatio="xMidYMid meet">

<g transform="translate(0.000000,360.000000) scale(0.100000,-0.100000)"
fill="#000000" stroke="none">
<path d="M2365 3379 c-91 -47 -288 -158 -395 -223 -204 -124 -696 -403 -1017
-578 -84 -46 -153 -89 -153 -96 0 -7 39 -77 87 -155 l87 -142 4 -193 4 -192
-69 0 c-139 0 -267 -49 -366 -140 -105 -96 -159 -201 -178 -347 -18 -145 21
-282 113 -397 99 -123 232 -193 386 -203 99 -7 180 6 352 54 355 99 409 111
555 120 106 6 128 2 233 -42 75 -31 205 -61 356 -80 265 -35 407 -7 530 106
72 66 107 139 66 139 -5 0 -53 -37 -107 -81 -130 -109 -142 -113 -288 -113
-157 -1 -472 56 -638 114 -32 12 -93 23 -135 26 -70 4 -97 0 -282 -49 -113
-30 -214 -57 -224 -62 -11 -5 0 15 28 50 26 32 59 81 73 110 l26 53 714 0
c453 0 718 3 724 9 11 11 9 1097 -2 1107 -4 4 -404 6 -890 6 -500 0 -879 3
-874 8 44 39 299 179 795 435 177 91 393 212 507 283 34 22 100 63 148 92 100
63 99 48 18 201 -80 151 -113 201 -131 201 -10 -1 -35 -10 -57 -21z m-37 -115
c147 -34 150 -35 156 -59 3 -13 22 -51 42 -85 20 -33 35 -63 32 -65 -3 -3 -36
4 -74 16 -38 12 -145 41 -239 63 l-169 42 84 52 c47 28 89 52 93 52 4 0 38 -7
75 -16z m-331 -339 c206 -53 232 -61 222 -68 -10 -9 -127 -73 -168 -92 -43
-21 -45 -22 -100 -5 -31 10 -130 34 -221 55 -91 20 -169 40 -173 45 -9 8 178
117 206 119 9 1 115 -24 234 -54z m-665 -300 c226 -37 319 -57 316 -67 -2 -5
-37 -27 -78 -49 -41 -22 -89 -49 -106 -59 -30 -17 -37 -17 -100 -4 -38 8 -163
23 -278 34 -115 11 -211 21 -213 23 -6 6 270 146 289 147 9 0 85 -11 170 -25z
m308 -481 c0 -3 -35 -42 -78 -87 -43 -45 -105 -110 -137 -145 l-60 -63 -117 3
-117 3 86 100 c47 55 106 121 131 148 l46 47 123 0 c68 0 123 -2 123 -6z m609
-11 c-8 -10 -63 -75 -123 -145 l-109 -128 -81 0 c-45 0 -99 -3 -120 -7 -34 -5
-39 -4 -33 11 4 9 62 77 129 151 l123 135 114 0 c107 0 113 -1 100 -17z m520
-25 c-27 -38 -119 -151 -189 -230 -25 -28 -27 -29 -117 -26 l-93 3 73 91 c39
50 90 116 112 147 l40 56 103 1 102 0 -31 -42z m-1820 -411 c13 -6 33 -29 44
-50 17 -33 18 -44 8 -77 -15 -51 -53 -80 -103 -80 -79 0 -132 72 -108 146 21
61 99 92 159 61z m1146 -197 c-7 -12 -466 -12 -615 0 -64 4 21 7 263 8 237 1
356 -1 352 -8z m385 0 c0 -6 -48 -10 -125 -10 -77 0 -125 4 -125 10 0 6 48 10
125 10 77 0 125 -4 125 -10z m-1217 -51 c61 -28 75 -118 28 -171 -26 -29 -35
-33 -81 -33 -46 0 -55 4 -81 33 -46 52 -33 142 25 171 28 13 80 13 109 0z
m-603 -16 c39 -26 49 -45 50 -85 0 -75 -41 -118 -114 -118 -25 0 -45 9 -68 29
-29 26 -33 35 -33 81 0 46 4 55 33 81 38 34 93 39 132 12z m748 -70 c2 -9 -8
-13 -32 -13 -26 0 -36 4 -36 16 0 19 61 16 68 -3z m810 0 c-141 -2 -375 -2
-520 0 -145 1 -29 2 257 2 286 0 404 -1 263 -2z m-1267 -63 c29 -16 25 -65 -6
-86 -23 -15 -27 -15 -50 0 -44 29 -28 95 23 96 7 0 22 -5 33 -10z m442 -77
c-18 -2 -48 -2 -65 0 -18 2 -4 4 32 4 36 0 50 -2 33 -4z m255 0 c-38 -2 -98
-2 -135 0 -38 2 -7 3 67 3 74 0 105 -1 68 -3z m295 0 c-35 -2 -91 -2 -125 0
-35 2 -7 3 62 3 69 0 97 -1 63 -3z m-721 -152 c41 -46 39 -102 -6 -147 -28
-28 -41 -34 -77 -34 -66 0 -100 32 -107 98 -4 49 -3 53 32 88 34 34 40 36 83
31 37 -4 54 -12 75 -36z m-424 -26 c32 -37 30 -103 -4 -144 -70 -83 -204 -26
-192 83 11 98 131 135 196 61z"/>
</g>
</svg>
